<svg width="128" height="80" xmlns="http://www.w3.org/2000/svg">

 <g>
  <title>background</title>
  <rect fill="none" id="canvas_background" height="82" width="130" y="-1" x="-1"/>
 </g>
 <g>
  <title>Layer 1</title>
  <rect stroke="null" rx="15" id="svg_16" height="64.230746" width="119.444242" y="8.451867" x="4.229738" stroke-opacity="null" stroke-width="null" fill="#fc0505"/>
  <ellipse stroke="null" ry="3.394159" rx="3.759123" id="svg_34" cy="29.83761" cx="63.028778" stroke-opacity="null" stroke-width="null" fill="#ffffff"/>
  <path stroke="null" fill="#ffffff" id="svg_33" d="m36.911767,42.160832c3.59108,0 6.52925,-2.75496 6.52925,-6.12213c0,-3.36718 -2.93817,-6.12214 -6.52925,-6.12214s-6.52926,2.75496 -6.52926,6.12214c0,3.36717 2.93817,6.12213 6.52926,6.12213zm3.68902,3.36717c-1.20791,-0.18366 -2.41582,-0.30611 -3.68902,-0.30611c-3.23199,0 -6.30074,0.64283 -9.07567,1.77542c-2.41582,0.97954 -3.98284,3.18351 -3.98284,5.66297l0,4.80588l14.69082,0l0,-4.92832c0,-2.54069 0.75086,-4.92832 2.05671,-7.00984zm48.54501,-3.36717c3.59109,0 6.52925,-2.75496 6.52925,-6.12213c0,-3.36718 -2.93816,-6.12214 -6.52925,-6.12214s-6.52926,2.75496 -6.52926,6.12214c0,3.36717 2.93817,6.12213 6.52926,6.12213zm13.05851,10.49945c0,-2.47946 -1.56702,-4.68343 -3.98285,-5.66297c-2.77493,-1.13259 -5.84368,-1.77542 -9.07566,-1.77542c-1.27321,0 -2.48112,0.12245 -3.68903,0.30611c1.30585,2.08152 2.05671,4.46915 2.05671,7.00984l0,4.92832l14.69083,0l0,-4.80588zm-25.33351,-8.50976c-3.81961,-1.59175 -8.52068,-2.75496 -13.84202,-2.75496c-5.32134,0 -10.0224,1.19382 -13.84202,2.75496c-3.52579,1.46931 -5.74574,4.77526 -5.74574,8.38732l0,4.92832l39.17552,0l0,-4.92832c0,-3.61206 -2.21994,-6.91801 -5.74574,-8.38732zm-26.672,7.1935c0.29381,-0.70404 0.4244,-1.19381 2.97081,-2.11213c3.16669,-1.16321 6.49661,-1.7142 9.85917,-1.7142s6.69249,0.55099 9.85918,1.7142c2.51376,0.91832 2.64434,1.40809 2.97081,2.11213l-25.65997,0zm12.82998,-24.48852c1.79555,0 3.26463,1.37748 3.26463,3.06106s-1.46908,3.06107 -3.26463,3.06107s-3.26463,-1.37748 -3.26463,-3.06107s1.46909,-3.06106 3.26463,-3.06106m0,-6.12213c-5.41928,0 -9.79388,4.10183 -9.79388,9.18319c0,5.08137 4.3746,9.1832 9.79388,9.1832s9.79388,-4.10183 9.79388,-9.1832c0,-5.08136 -4.3746,-9.18319 -9.79388,-9.18319l0,0z"/>
  <rect id="svg_10" height="3.907281" width="5.529796" y="1.186683" x="-6.791372" fill-opacity="null" stroke-opacity="null" stroke-width="null" stroke="null" fill="none"/>
  <path id="svg_18" stroke-opacity="null" stroke-width="null" stroke="null" fill="#000000"/>
  <line stroke-linecap="null" stroke-linejoin="null" id="svg_21" y2="98.417882" x2="9.267265" y1="98.265211" x1="8.961922" stroke-opacity="null" stroke-width="null" stroke="null" fill="none"/>
  <rect id="svg_26" width="0.916029" y="99.028568" x="6.213835" stroke-opacity="null" stroke-width="null" stroke="null" fill="#ff0000"/>
  <path stroke="null" id="svg_35" d="m59.876289,26.000892c0,0 0,7.883209 -0.000002,7.883207c0.000002,0.000002 8.467154,-3.753907 8.467151,-3.753909c0.000003,0.000002 -8.467149,-4.129298 -8.467149,-4.129298z" fill-opacity="null" stroke-opacity="null" stroke-width="null" fill="#f70909"/>
 </g>
</svg>